<svg xmlns="http://www.w3.org/2000/svg" width="76" height="76" viewBox="0 0 76 76">
  <defs>
    <style>
      .cls-1, .cls-2 {
        fill: none;
      }

      .cls-2 {
        stroke: #fec3a2;
        stroke-miterlimit: 10;
        stroke-width: 3px;
      }

      .cls-3, .cls-4 {
        stroke: none;
      }

      .cls-4 {
        fill: #fec3a2;
      }
    </style>
  </defs>
  <g id="组_5647" data-name="组 5647" transform="translate(-411 -1166)">
    <g id="组_5641" data-name="组 5641" transform="translate(411 1166)">
      <g id="路径_2389" data-name="路径 2389" class="cls-1">
        <path class="cls-3" d="M38,0A38,38,0,1,1,0,38,38,38,0,0,1,38,0Z"/>
        <path class="cls-4" d="M 38 3 C 33.27371215820312 3 28.69038772583008 3.924972534179688 24.37734985351562 5.749237060546875 C 20.20992660522461 7.511909484863281 16.46657562255859 10.03596496582031 13.25126266479492 13.25126266479492 C 10.03596496582031 16.46657562255859 7.511909484863281 20.20992660522461 5.749237060546875 24.37734985351562 C 3.924972534179688 28.69038772583008 3 33.27371215820312 3 38 C 3 42.72628784179688 3.924972534179688 47.30961227416992 5.749237060546875 51.62266159057617 C 7.511909484863281 55.79007720947266 10.03596496582031 59.53343963623047 13.25126266479492 62.74873733520508 C 16.46657562255859 65.96405029296875 20.20992660522461 68.48809051513672 24.37734985351562 70.25076293945312 C 28.69038772583008 72.07502746582031 33.27371215820312 73 38 73 C 42.72628784179688 73 47.30961227416992 72.07502746582031 51.62266159057617 70.25076293945312 C 55.79007720947266 68.48809051513672 59.53343963623047 65.96405029296875 62.74873733520508 62.74873733520508 C 65.96405029296875 59.53343963623047 68.48809051513672 55.79007720947266 70.25076293945312 51.62266159057617 C 72.07502746582031 47.30961227416992 73 42.72628784179688 73 38 C 73 33.27371215820312 72.07502746582031 28.69038772583008 70.25076293945312 24.37734985351562 C 68.48809051513672 20.20992660522461 65.96405029296875 16.46657562255859 62.74873733520508 13.25126266479492 C 59.53343963623047 10.03596496582031 55.79007720947266 7.511909484863281 51.62266159057617 5.749237060546875 C 47.30961227416992 3.924972534179688 42.72628784179688 3 38 3 M 38 0 C 58.98682403564453 0 76 17.01318740844727 76 38 C 76 58.98682403564453 58.98682403564453 76 38 76 C 17.01318740844727 76 0 58.98682403564453 0 38 C 0 17.01318740844727 17.01318740844727 0 38 0 Z"/>
      </g>
    </g>
    <g id="组_5642" data-name="组 5642" transform="translate(428.999 1184.078)">
      <g id="组_5638" data-name="组 5638">
        <path id="路径_5547" data-name="路径 5547" class="cls-2" d="M332.845,174.206s9.439,7.647,1.2,20.159c-3.458,4.455-6.181,10.526-5.864,16.766" transform="translate(-328.161 -174.202)"/>
        <path id="路径_5548" data-name="路径 5548" class="cls-2" d="M368.155,211.135a20.457,20.457,0,0,0-.476-5.537,25.534,25.534,0,0,0-1.566-4.824c-.2-.451-.4-.889-.626-1.328a30.92,30.92,0,0,0-3.2-5.086c-8.231-12.5,1.2-20.158,1.2-20.158" transform="translate(-328.161 -174.202)"/>
        <path id="路径_5549" data-name="路径 5549" class="cls-2" d="M346.342,196.356a1.724,1.724,0,0,1,1.42-.72,1.766,1.766,0,0,1,1.43.73" transform="translate(-328.161 -174.202)"/>
      </g>
      <g id="组_5639" data-name="组 5639" transform="translate(0.741 21.938)">
        <path id="路径_5550" data-name="路径 5550" class="cls-2" d="M362.837,204.132a7.979,7.979,0,0,1-1.188,4.192,8.232,8.232,0,0,1-1.353,1.651l-.048.047a8.649,8.649,0,0,1-1.71,1.2c-3.384,1.663-15.544,1.877-20.152.273a7.987,7.987,0,0,1-4.892-7.362c0-.273.011-.546.035-.808a8,8,0,0,1,7.968-7.184l.76.048q2.3.143,4.6.178c.629.012,1.247.012,1.864.012h.012c2.031-.012,4.062-.1,6.08-.238h.036a7.958,7.958,0,0,1,7.885,6.757A7.152,7.152,0,0,1,362.837,204.132Z" transform="translate(-328.902 -196.14)"/>
        <path id="路径_5551" data-name="路径 5551" class="cls-2" d="M332,203.8" transform="translate(-328.902 -196.14)"/>
        <path id="路径_5552" data-name="路径 5552" class="cls-2" d="M359.987,210.188l.261-.166.048-.047,5.723-3.777a6.271,6.271,0,0,0,1.268-1.315" transform="translate(-328.902 -196.14)"/>
        <line id="直线_125" data-name="直线 125" class="cls-2" x1="7.903" y1="3.546" transform="translate(29.09 0.606)"/>
        <line id="直线_126" data-name="直线 126" class="cls-2" x1="6.884" y2="2.871" transform="translate(1.638 1.081)"/>
        <path id="路径_5553" data-name="路径 5553" class="cls-2" d="M328.9,205.014a6.644,6.644,0,0,0,1.433,1.457l7.089,4.56" transform="translate(-328.902 -196.14)"/>
      </g>
    </g>
  </g>
</svg>
