<?xml version="1.0" encoding="UTF-8"?>
<!DOCTYPE svg PUBLIC "-//W3C//DTD SVG 1.1//EN" "http://www.w3.org/Graphics/SVG/1.1/DTD/svg11.dtd">
<svg xmlns="http://www.w3.org/2000/svg" version="1.1" width="21px" height="19px" style="shape-rendering:geometricPrecision; text-rendering:geometricPrecision; image-rendering:optimizeQuality; fill-rule:evenodd; clip-rule:evenodd" xmlns:xlink="http://www.w3.org/1999/xlink">
<g><path style="opacity:0.743" fill="#ff8367" d="M 12.5,-0.5 C 13.8333,-0.5 15.1667,-0.5 16.5,-0.5C 19.2844,1.95164 18.951,3.95164 15.5,5.5C 14.205,4.51163 12.8717,3.51163 11.5,2.5C 11.5569,1.39105 11.8902,0.391047 12.5,-0.5 Z"/></g>
<g><path style="opacity:0.766" fill="#ff7b76" d="M 11.5,2.5 C 12.8717,3.51163 14.205,4.51163 15.5,5.5C 14.8333,6.83333 13.8333,7.83333 12.5,8.5C 10.3146,8.29644 8.31455,7.62977 6.5,6.5C 7.58457,4.41311 9.25124,3.07978 11.5,2.5 Z"/></g>
<g><path style="opacity:0.759" fill="#ff7384" d="M 6.5,6.5 C 8.31455,7.62977 10.3146,8.29644 12.5,8.5C 11.1667,10.5 9.5,12.1667 7.5,13.5C 5.83333,12.5 4.5,11.1667 3.5,9.5C 4.16667,8.16667 5.16667,7.16667 6.5,6.5 Z"/></g>
<g><path style="opacity:0.706" fill="#ff6e8d" d="M 3.5,9.5 C 4.5,11.1667 5.83333,12.5 7.5,13.5C 7.16667,14.1667 6.83333,14.8333 6.5,15.5C 4.83333,15.5 3.16667,15.5 1.5,15.5C 1.05351,12.9899 1.72017,10.9899 3.5,9.5 Z"/></g>
<g><path style="opacity:0.762" fill="#ff6489" d="M -0.5,15.5 C 0.166667,15.5 0.833333,15.5 1.5,15.5C 3.16667,15.5 4.83333,15.5 6.5,15.5C 7.5,15.5 8.5,15.5 9.5,15.5C 10.6935,16.2719 11.6935,17.2719 12.5,18.5C 8.16667,18.5 3.83333,18.5 -0.5,18.5C -0.5,17.5 -0.5,16.5 -0.5,15.5 Z"/></g>
<g><path style="opacity:0.67" fill="#ff777e" d="M 9.5,15.5 C 13.2693,15.244 16.9359,15.5773 20.5,16.5C 20.5,17.1667 20.5,17.8333 20.5,18.5C 17.8333,18.5 15.1667,18.5 12.5,18.5C 11.6935,17.2719 10.6935,16.2719 9.5,15.5 Z"/></g>
</svg>
