<svg xmlns="http://www.w3.org/2000/svg" width="76" height="76" viewBox="0 0 76 76">
  <defs>
    <style>
      .cls-1, .cls-2, .cls-3, .cls-6 {
        fill: none;
      }

      .cls-2, .cls-3 {
        stroke: #eec962;
        stroke-width: 3px;
      }

      .cls-3 {
        stroke-miterlimit: 10;
      }

      .cls-4, .cls-5 {
        stroke: none;
      }

      .cls-5 {
        fill: #eec962;
      }
    </style>
  </defs>
  <g id="组_5643" data-name="组 5643" transform="translate(-165.381 -495)">
    <g id="组_5563" data-name="组 5563" transform="translate(165.381 495)">
      <g id="路径_2389" data-name="路径 2389" class="cls-1">
        <path class="cls-4" d="M38,0A38,38,0,1,1,0,38,38,38,0,0,1,38,0Z"/>
        <path class="cls-5" d="M 38 3 C 33.27371215820312 3 28.69038772583008 3.924972534179688 24.37733840942383 5.749237060546875 C 20.20992660522461 7.511909484863281 16.4665641784668 10.03594970703125 13.25126266479492 13.25126266479492 C 10.03594970703125 16.4665641784668 7.511909484863281 20.20992660522461 5.749237060546875 24.37733840942383 C 3.924972534179688 28.69038772583008 3 33.27371215820312 3 38 C 3 42.72628784179688 3.924972534179688 47.30961227416992 5.749237060546875 51.62266159057617 C 7.511909484863281 55.79007720947266 10.03594970703125 59.53343963623047 13.25126266479492 62.74873733520508 C 16.4665641784668 65.96405029296875 20.20992660522461 68.48809051513672 24.37733840942383 70.25076293945312 C 28.69038772583008 72.07502746582031 33.27371215820312 73 38 73 C 42.72628784179688 73 47.30961227416992 72.07502746582031 51.62266159057617 70.25076293945312 C 55.79007720947266 68.48809051513672 59.53343963623047 65.96405029296875 62.74873733520508 62.74873733520508 C 65.96405029296875 59.53343963623047 68.48809051513672 55.79007720947266 70.25076293945312 51.62266159057617 C 72.07502746582031 47.30961227416992 73 42.72628784179688 73 38 C 73 33.27371215820312 72.07502746582031 28.69038772583008 70.25076293945312 24.37733840942383 C 68.48809051513672 20.20992660522461 65.96405029296875 16.4665641784668 62.74873733520508 13.25126266479492 C 59.53343963623047 10.03594970703125 55.79007720947266 7.511909484863281 51.62266159057617 5.749237060546875 C 47.30961227416992 3.924972534179688 42.72628784179688 3 38 3 M 38 0 C 58.98682403564453 0 76 17.01317596435547 76 38 C 76 58.98682403564453 58.98682403564453 76 38 76 C 17.01317596435547 76 0 58.98682403564453 0 38 C 0 17.01317596435547 17.01317596435547 0 38 0 Z"/>
      </g>
    </g>
    <g id="组_5564" data-name="组 5564" transform="matrix(0.695, 0.719, -0.719, 0.695, 216.629, 508.004)">
      <g id="矩形_2891" data-name="矩形 2891" class="cls-2" transform="translate(0 0)">
        <rect class="cls-4" width="18" height="41.336" rx="9"/>
        <rect class="cls-6" x="1.5" y="1.5" width="15" height="38.336" rx="7.5"/>
      </g>
      <line id="直线_119" data-name="直线 119" class="cls-2" y1="30.588" transform="translate(9 9.529)"/>
      <line id="直线_120" data-name="直线 120" class="cls-2" x2="3.99" transform="translate(1.33 32.511)"/>
      <line id="直线_121" data-name="直线 121" class="cls-2" x2="3.99" transform="translate(1.33 22.763)"/>
      <line id="直线_122" data-name="直线 122" class="cls-2" x2="3.99" transform="translate(1.33 11.797)"/>
      <path id="路径_5469" data-name="路径 5469" class="cls-3" d="M7.676,0V10.282a3.94,3.94,0,0,1-3.634,4.185H3.634A3.939,3.939,0,0,1,0,10.282V0" transform="translate(5.162 38.781)"/>
    </g>
  </g>
</svg>
