<svg xmlns="http://www.w3.org/2000/svg" width="67.415" height="129.051" viewBox="0 0 67.415 129.051">
  <defs>
    <style>
      .cls-1, .cls-4 {
        fill: none;
        stroke-width: 2px;
      }

      .cls-1, .cls-2, .cls-3, .cls-4, .cls-5 {
        stroke: #828c96;
      }

      .cls-1, .cls-3, .cls-4, .cls-5 {
        stroke-miterlimit: 10;
      }

      .cls-2, .cls-3, .cls-5 {
        fill: #828c96;
      }

      .cls-4 {
        stroke-linecap: round;
      }

      .cls-5 {
        stroke-linejoin: round;
      }
    </style>
  </defs>
  <g id="cw2" transform="translate(1.004 1.131)">
    <path id="路径_5182" data-name="路径 5182" class="cls-1" d="M-1052.99,1371.739a.329.329,0,0,0,.063-.019h0" transform="translate(1088.568 -1270.832)"/>
    <path id="路径_5183" data-name="路径 5183" class="cls-1" d="M-1072.25,1309.96c.046.03.095.06.141.092" transform="translate(1112.973 -1225.813)"/>
    <path id="路径_5185" data-name="路径 5185" class="cls-1" d="M-1055.849,1373.5c-4.671,2.922-6.43,9.5-6.21,12.13.111,1.326.084,2.1-.212,2.467a4.746,4.746,0,0,0-1.656,2.86,2.206,2.206,0,0,0,2.426,2.491c1.312,0,2.057,1.4,3.109,3.109s3.055,1.7,3.4,1.353c.39.54.849.1.992-.209.7.057.892-.846.892-.846l.531-.339c.534-.336.219-1.168.219-1.168a.574.574,0,0,0,.306-.03" transform="translate(1090.666 -1272.129)"/>
    <path id="路径_5186" data-name="路径 5186" class="cls-1" d="M-1110.7,1339.04c2.082,3.123,3.014,6.177,2.48,8.2a19.187,19.187,0,0,1-3.361,6.194" transform="translate(1159.602 -1247.01)"/>
    <path id="路径_5187" data-name="路径 5187" class="cls-1" d="M-1033.161,1325.087h-.005a19.609,19.609,0,0,1-16.028-6.977c-5.212-5.215-5.131-11.452-4.521-16.207l.149.065a58.987,58.987,0,0,0,18.674,2.8,49.471,49.471,0,0,0,15.437-3.676" transform="translate(1055.372 -1219.347)"/>
    <path id="路径_5188" data-name="路径 5188" class="cls-1" d="M-1071.448,1298.294c0-.024,0-.048,0-.073a19.547,19.547,0,0,0-.8-4.391" transform="translate(1112.311 -1214.055)"/>
    <path id="路径_5189" data-name="路径 5189" class="cls-1" d="M-1086.984,1253.52c-2.1,1.846-4.489,2.89-6.706,2.464" transform="translate(1133.659 -1184.672)"/>
    <path id="路径_5190" data-name="路径 5190" class="cls-1" d="M-1113.153,1194.225a13.976,13.976,0,0,0,.84-4.343c1.686-2.326,2.055-6.3-.163-6.977s-6.578-1.334-5.654,3.627c.247,1.19.664,1.054.182,1.751-.333.477-.312.022-2.326,1.713" transform="translate(1164.81 -1132.861)"/>
    <path id="路径_5191" data-name="路径 5191" class="cls-1" d="M-1029.73,1165.4c.073-.016.149-.03.223-.041" transform="translate(1058.845 -1120.409)"/>
    <path id="路径_5192" data-name="路径 5192" class="cls-1" d="M-1015.89,1224.22s0,0,0,0" transform="translate(1041.474 -1163.314)"/>
    <path id="路径_5193" data-name="路径 5193" class="cls-1" d="M-968.153,1157.509v-.531c-9.926,4.883-13.439,24.589-14.5,34.78" transform="translate(984.73 -1114.666)"/>
    <path id="路径_5194" data-name="路径 5194" class="cls-1" d="M-1055.9,1188.64c.149.518.3,1.03.45,1.539" transform="translate(1091.882 -1137.378)"/>
    <path id="路径_5195" data-name="路径 5195" class="cls-1" d="M-1068.834,1244.521c.087.724.152,1.453.2,2.193.059,1.019.1,1.916.108,2.711a11.782,11.782,0,0,1-.428,3.914" transform="translate(1108.5 -1178.112)"/>
    <path id="路径_5196" data-name="路径 5196" class="cls-1" d="M-1030.64,1165.51c.16.073.314.146.469.222" transform="translate(1059.756 -1120.518)"/>
    <path id="路径_5197" data-name="路径 5197" class="cls-1" d="M-1036.882,1282.613c1.385-.548,2.469-1.022,3.133-1.3a3.542,3.542,0,0,0,1.011-.664,2.668,2.668,0,0,0,.783-2.949,2.953,2.953,0,0,0-1.3-1.6,2.315,2.315,0,0,0-2.128-.168,56.873,56.873,0,0,1-17.766,4.234c-6.232.439-12.886-1.323-16.562-2.2a2.328,2.328,0,0,0-1.006-.005,2.558,2.558,0,0,0-2.038,2.231,2.775,2.775,0,0,0,1.615,3.234.2.2,0,0,0,.006-.038" transform="translate(1072.798 -1200.87)"/>
    <path id="路径_5198" data-name="路径 5198" class="cls-1" d="M-1086.226,1323.175a10.5,10.5,0,0,0-4.928,3.085.464.464,0,0,0-.035.038,12.8,12.8,0,0,0-2.136,3.112c-2.277,6.408-.55,9.189-.55,9.189,1,3.164-1.244,2.4-2.049,4.879s2.231,3.453,4.183,3.15c1.342-.209,2.434.626,3.621,1.914.542.588,1.1,1.274,1.718,2,1.96,2.3,4.936,1.832,5.364,1.236.705.713,1.285-.052,1.429-.54,1.06-.076,1.133-1.464,1.133-1.464l.713-.623c.715-.626.06-1.789.06-1.789s.905.092,1.369-1.458-1.236-2.507-2.955-2.022a2.821,2.821,0,0,1-2.838-.886c-1.116-1.26,1.358-3.223,2.673-8.433,4.8-16.852.653-21.352-3.789-24.317,0,0-5.321-2.946-18.549,1.743-5.665,2.009-8.533,18.413-2.732,19.107h.005a.184.184,0,0,0,.038.005c4.145.439,9.666-2.735,13.293-4.8l.1-.057h0" transform="translate(1126.731 -1225.353)"/>
    <g id="组_5206" data-name="组 5206" transform="translate(7.021 0)">
      <g id="组_5201" data-name="组 5201">
        <path id="路径_5199" data-name="路径 5199" class="cls-1" d="M-1102.309,1047.06h0c.486-.011.957-.037,1.419-.077.638-.056,1.254-.144,1.844-.255,9.616-1.81,13.021-10.414,14.3-13.2,1.554-3.394,10.586-23.416-6.335-34.01-14.357-8.989-30.826-1.121-33.637,14.3a24.161,24.161,0,0,0-.388,3.542,6.3,6.3,0,0,0-4.148,6.47c.285,3.494,3.213,4.86,5.049,5.469a25.109,25.109,0,0,0,4.007,9.037v0" transform="translate(1129.277 -995.72)"/>
      </g>
      <g id="组_5204" data-name="组 5204" transform="translate(2.509 25.359)">
        <path id="路径_5200" data-name="路径 5200" class="cls-2" d="M-961.992,1088.449a1.846,1.846,0,0,0-1.371-.016,2.226,2.226,0,0,0-1.107.928,2.906,2.906,0,0,0-.408,1.335,3.2,3.2,0,0,0,.19,1.327c.15-.428.254-.835.385-1.219a5.084,5.084,0,0,1,.466-1.054,2.678,2.678,0,0,1,.736-.8A3.6,3.6,0,0,1-961.992,1088.449Z" transform="translate(964.884 -1088.309)"/>
        <path id="路径_5201" data-name="路径 5201" class="cls-2" d="M-963.646,1091.5a4.652,4.652,0,0,0,.231.651c.085.191.174.367.268.539s.2.338.313.51a4.157,4.157,0,0,0,.429.542,1.314,1.314,0,0,0,.125-.729,1.718,1.718,0,0,0-.217-.685,1.766,1.766,0,0,0-.464-.544A1.29,1.29,0,0,0-963.646,1091.5Z" transform="translate(964.836 -1090.65)"/>
        <g id="组_5203" data-name="组 5203" transform="translate(13.776 4.069)">
          <g id="组_5202" data-name="组 5202">
            <path id="路径_5202" data-name="路径 5202" class="cls-3" d="M-1028.319,1108.889s-3.848.365-5.819-2.108c-.263-.329-.508-.346-.612-.3-.236.112-.386.342-.025.776a5.86,5.86,0,0,0,5.6,2.167C-1028.41,1109.379-1027.51,1108.9-1028.319,1108.889Z" transform="translate(1034.991 -1106.464)"/>
            <path id="路径_5203" data-name="路径 5203" class="cls-3" d="M-1097.371,1124.99s2.608,2.853,5.729,2.341c.415-.068.609.084.653.191.1.242.056.512-.5.592a5.859,5.859,0,0,1-5.605-2.148C-1097.632,1125.414-1097.981,1124.458-1097.371,1124.99Z" transform="translate(1114.599 -1119.953)"/>
            <path id="路径_5204" data-name="路径 5204" class="cls-4" d="M-1052.768,1157.576a6.013,6.013,0,0,0,6.339,1.61" transform="translate(1058.143 -1143.995)"/>
          </g>
        </g>
      </g>
      <g id="组_5205" data-name="组 5205" transform="translate(30.28 8.96)">
        <path id="路径_5207" data-name="路径 5207" class="cls-5" d="M-1097.51,1033.665a10.244,10.244,0,0,0,1.881,1.335,8.667,8.667,0,0,0,2.176.873,5.615,5.615,0,0,0,2.417.053,4.71,4.71,0,0,0,2.223-1.15,3.073,3.073,0,0,0,.745-1.147,2.88,2.88,0,0,0,.133-1.4,3.316,3.316,0,0,0-1.478-2.233,3.237,3.237,0,0,0-2.58-.456,3.117,3.117,0,0,0-1.139.573,3.528,3.528,0,0,0-.782.918l.089.083a5.578,5.578,0,0,1,.978-.52,3.076,3.076,0,0,1,.989-.2,2.653,2.653,0,0,1,1.736.6,2.892,2.892,0,0,1,1,1.469,1.735,1.735,0,0,1-.4,1.641,3.586,3.586,0,0,1-.773.624,4.191,4.191,0,0,1-.942.413,4.9,4.9,0,0,1-2.106.134,9.869,9.869,0,0,1-4.091-1.7Z" transform="translate(1097.51 -1029.439)"/>
      </g>
    </g>
    <g id="组_5207" data-name="组 5207" transform="translate(14.312 41.02)">
      <path id="路径_5208" data-name="路径 5208" class="cls-4" d="M-1162.814,1153.752a10.977,10.977,0,0,1,1.35-1.028c2.54-1.729,9.994-5.078,17.12,6.728,4.172,4.963,9.131,5.416,15.875,10.139a20.64,20.64,0,0,0,8.507,3.253c2.706.534,7.782-2.934,8.214,2.446.56,6.971-5.94,3.656-9.568,3.977-6.19.548-15.277-.982-18.4-4.83-6.575-1.738-11.562-1.806-17.047-7.889" transform="translate(1162.814 -1150.929)"/>
    </g>
  </g>
</svg>
