<svg xmlns="http://www.w3.org/2000/svg" width="107.646" height="62.274" viewBox="0 0 107.646 62.274">
  <defs>
    <style>
      .cls-1, .cls-2, .cls-7 {
        fill: none;
        stroke-width: 2px;
      }

      .cls-1, .cls-2, .cls-3, .cls-4, .cls-6, .cls-7 {
        stroke: #828c96;
      }

      .cls-1, .cls-2, .cls-4, .cls-7 {
        stroke-miterlimit: 10;
      }

      .cls-2, .cls-6, .cls-7 {
        stroke-linecap: round;
      }

      .cls-3 {
        fill: #5f6973;
      }

      .cls-4 {
        fill: #fff;
      }

      .cls-5, .cls-6 {
        fill: #828c96;
      }

      .cls-6, .cls-7 {
        stroke-linejoin: round;
      }
    </style>
  </defs>
  <g id="fw_mage" transform="translate(1.009 1.154)">
    <path id="路径_5121" data-name="路径 5121" class="cls-1" d="M21.817,0C8.439,7.414,0,4.9,0,4.9" transform="translate(48.457 12.966)"/>
    <path id="路径_5122" data-name="路径 5122" class="cls-1" d="M19.506,35.45a22.561,22.561,0,0,0,6.3-22.87C22.57,2.418,11.608-2.768,0,1.5" transform="translate(77.658 7.638)"/>
    <path id="路径_5123" data-name="路径 5123" class="cls-1" d="M12.366,17.5C8.863,10.558,9.261,5.93,9.66,4.095A3.427,3.427,0,0,0,7.725.69,6.056,6.056,0,0,0,6.656.209c-2.407-.827-4.886.973-5.6,2.413A8.35,8.35,0,0,0,.341,4.515C-.973,9.7,1.817,16.653,3.509,20.187" transform="translate(69.933 8.451)"/>
    <path id="路径_5124" data-name="路径 5124" class="cls-2" d="M28.3,15.762S31.274,5.2,22.981,1.224C15.022-2.366,5.034,2.171,1.394,11.817c-3.605,9.554.145,19.52,7.066,21.561,5.4,1.356,10.605,1.615,20.424-6.54.34-.282.568.2.155.358-.883.336-1.291,1.1-2.225,2.228s.234,2.054,1.158,2.227c-.3,1.454,3.29,2.375,3.29,2.375,3.978.928,5.926-3.231,5.966-6.521s3.675-2.33,3.534-6.641-4.872-4.044-6.475-2.685c-13.806-8.057-23.363,3.553-23.363,3.553" transform="translate(64.871 25.951)"/>
    <g id="组_5139" data-name="组 5139" transform="translate(0 0)">
      <path id="路径_5125" data-name="路径 5125" class="cls-1" d="M35.956,48.812c-5.647,1.366-10.86-.341-13.034-.943C19.207,46.839-2.621,40.661.261,20.24,2.707,2.919,19.88-4.863,33.939,3.175a25.114,25.114,0,0,1,3.053,2.047A6.515,6.515,0,0,1,44.865,6.25c2.572,2.55,1.7,5.771.965,7.626,0,0,10.333,12.465,1.877,25.879a25.448,25.448,0,0,1-2.418,3.256" transform="translate(0 0)"/>
    </g>
    <g id="组_5142" data-name="组 5142" transform="translate(25.343 7.825)">
      <path id="路径_5126" data-name="路径 5126" class="cls-3" d="M0,1.379A1.908,1.908,0,0,1,.9.286,2.3,2.3,0,0,1,2.369.028,3,3,0,0,1,3.695.594a3.3,3.3,0,0,1,.923,1.033c-.438-.166-.829-.355-1.219-.507A5.25,5.25,0,0,0,2.256.787a2.764,2.764,0,0,0-1.12.052A3.739,3.739,0,0,0,0,1.379Z" transform="translate(13.789 0)"/>
      <path id="路径_5127" data-name="路径 5127" class="cls-3" d="M.232,0a4.77,4.77,0,0,1,.36.615c.094.194.174.381.248.57s.134.382.2.586a4.3,4.3,0,0,1,.143.7,1.358,1.358,0,0,1-.66-.387,1.783,1.783,0,0,1-.4-.627A1.826,1.826,0,0,1,0,.729,1.335,1.335,0,0,1,.232,0Z" transform="translate(15.249 0.505)"/>
      <g id="组_5141" data-name="组 5141" transform="translate(0 12.305)">
        <g id="组_5140" data-name="组 5140" transform="translate(0 0)">
          <path id="路径_5128" data-name="路径 5128" class="cls-4" d="M.151,6.731S3,3.934,2.357.731C2.272.3,2.422.1,2.53.051c.246-.112.527-.077.629.5A6.052,6.052,0,0,1,1.148,6.412C.6,6.985-.376,7.38.151,6.731Z" transform="translate(7.075 0)"/>
          <path id="路径_5129" data-name="路径 5129" class="cls-4" d="M2.27.332S2.789,4.291.309,6.416c-.33.283-.338.537-.283.643.125.239.367.385.8,0A6.053,6.053,0,0,0,2.859,1.2C2.779.408,2.255-.5,2.27.332Z" transform="translate(0 16.478)"/>
          <path id="路径_5130" data-name="路径 5130" class="cls-2" d="M2.945,0A6.21,6.21,0,0,1,0,6.08" transform="translate(13.961 13.128)"/>
        </g>
        <path id="路径_5131" data-name="路径 5131" class="cls-5" d="M1.566,4.1A2.461,2.461,0,0,1,2.556.363C2.22-.158,1.727-.038,1.3.223a2.447,2.447,0,0,0-1.148,2.9C.369,3.584.891,4.217,1.566,4.1Z" transform="translate(6.328 12.65)"/>
      </g>
    </g>
    <g id="组_5143" data-name="组 5143" transform="translate(4.637 20.231)">
      <path id="路径_5132" data-name="路径 5132" class="cls-6" d="M8.312,0a10.6,10.6,0,0,1-.2,2.375,8.985,8.985,0,0,1-.757,2.3A5.8,5.8,0,0,1,5.793,6.62a4.863,4.863,0,0,1-2.387.992A3.173,3.173,0,0,1,2,7.438a2.985,2.985,0,0,1-1.2-.828A3.425,3.425,0,0,1,.026,3.957,3.34,3.34,0,0,1,1.381,1.615,3.213,3.213,0,0,1,2.592,1.1a3.64,3.64,0,0,1,1.245-.008l.006.126a5.779,5.779,0,0,0-1.062.426,3.175,3.175,0,0,0-.819.645,2.74,2.74,0,0,0-.678,1.773,2.991,2.991,0,0,0,.5,1.766A1.793,1.793,0,0,0,3.342,6.6a3.714,3.714,0,0,0,1.007-.2,4.4,4.4,0,0,0,.953-.47A5.062,5.062,0,0,0,6.809,4.364,10.192,10.192,0,0,0,8.186,0Z" transform="translate(0 0)"/>
    </g>
    <path id="路径_5133" data-name="路径 5133" class="cls-7" d="M23.809,0s8.666,10.265.58,16.79C15.723,22.439,9.882,14.624,9.03,13.231c.89,2.127-5.511,6.956-8.583.155C-2.474,6.916,9.495-1.547,19.4,6.035" transform="translate(35.399 39.923)"/>
  </g>
</svg>
