<svg xmlns="http://www.w3.org/2000/svg" width="76" height="76" viewBox="0 0 76 76">
  <defs>
    <style>
      .cls-1, .cls-3, .cls-4, .cls-6 {
        fill: none;
      }

      .cls-1, .cls-2, .cls-3 {
        stroke: #56a9dc;
        stroke-width: 3px;
      }

      .cls-1 {
        stroke-linecap: round;
      }

      .cls-2 {
        fill: #fff;
      }

      .cls-5, .cls-7 {
        stroke: none;
      }

      .cls-7 {
        fill: #56a9dc;
      }
    </style>
  </defs>
  <g id="组_5646" data-name="组 5646" transform="translate(-182 -1166)">
    <g id="组_5644" data-name="组 5644" transform="translate(199.98 1186.538)">
      <g id="组_5300" data-name="组 5300" transform="translate(0)">
        <g id="矩形_2293" data-name="矩形 2293" class="cls-1">
          <path class="cls-5" d="M5,0H35.4a5,5,0,0,1,5,5V17.879a20,20,0,0,1-20,20H20a20,20,0,0,1-20-20V5A5,5,0,0,1,5,0Z"/>
          <path class="cls-6" d="M5,1.5H35.4A3.5,3.5,0,0,1,38.9,5V17.879a18.5,18.5,0,0,1-18.5,18.5H20a18.5,18.5,0,0,1-18.5-18.5V5A3.5,3.5,0,0,1,5,1.5Z"/>
        </g>
        <path id="路径_5363" data-name="路径 5363" class="cls-1" d="M5808,3256.709h5.428" transform="translate(-5806.672 -3248.021)"/>
        <path id="路径_5364" data-name="路径 5364" class="cls-1" d="M5808,3256.709h5.428" transform="translate(-5774.425 -3248.021)"/>
        <g id="椭圆_2654" data-name="椭圆 2654" class="cls-2" transform="translate(17.677 6.313)">
          <circle class="cls-5" cx="2.525" cy="2.525" r="2.525"/>
          <circle class="cls-6" cx="2.525" cy="2.525" r="1.025"/>
        </g>
        <path id="路径_5365" data-name="路径 5365" class="cls-3" d="M5841.873,3264.01s-15.152,1.321-12.591,18.279" transform="translate(-5802.871 -3246.266)"/>
        <path id="路径_5366" data-name="路径 5366" class="cls-3" d="M5828.99,3264.01s15.153,1.321,12.592,18.279" transform="translate(-5827.662 -3246.266)"/>
      </g>
    </g>
    <g id="组_5645" data-name="组 5645" transform="translate(182 1166)">
      <g id="路径_2389" data-name="路径 2389" class="cls-4">
        <path class="cls-5" d="M38,0A38,38,0,1,1,0,38,38,38,0,0,1,38,0Z"/>
        <path class="cls-7" d="M 38 3 C 33.27371215820312 3 28.69038772583008 3.924972534179688 24.37733840942383 5.749237060546875 C 20.20992660522461 7.511909484863281 16.4665641784668 10.03594970703125 13.25126266479492 13.25126266479492 C 10.03594970703125 16.4665641784668 7.511909484863281 20.20992660522461 5.749237060546875 24.37733840942383 C 3.924972534179688 28.69038772583008 3 33.27371215820312 3 38 C 3 42.72628784179688 3.924972534179688 47.30961227416992 5.749237060546875 51.62266159057617 C 7.511909484863281 55.79007720947266 10.03594970703125 59.53343963623047 13.25126266479492 62.74873733520508 C 16.4665641784668 65.96405029296875 20.20992660522461 68.48809051513672 24.37733840942383 70.25076293945312 C 28.69038772583008 72.07502746582031 33.27371215820312 73 38 73 C 42.72628784179688 73 47.30961227416992 72.07502746582031 51.62266159057617 70.25076293945312 C 55.79007720947266 68.48809051513672 59.53343963623047 65.96405029296875 62.74873733520508 62.74873733520508 C 65.96405029296875 59.53343963623047 68.48809051513672 55.79007720947266 70.25076293945312 51.62266159057617 C 72.07502746582031 47.30961227416992 73 42.72628784179688 73 38 C 73 33.27371215820312 72.07502746582031 28.69038772583008 70.25076293945312 24.37733840942383 C 68.48809051513672 20.20992660522461 65.96405029296875 16.4665641784668 62.74873733520508 13.25126266479492 C 59.53343963623047 10.03594970703125 55.79007720947266 7.511909484863281 51.62266159057617 5.749237060546875 C 47.30961227416992 3.924972534179688 42.72628784179688 3 38 3 M 38 0 C 58.98682403564453 0 76 17.01317596435547 76 38 C 76 58.98682403564453 58.98682403564453 76 38 76 C 17.01317596435547 76 0 58.98682403564453 0 38 C 0 17.01317596435547 17.01317596435547 0 38 0 Z"/>
      </g>
    </g>
  </g>
</svg>
