<svg xmlns="http://www.w3.org/2000/svg" width="68.764" height="131.669" viewBox="0 0 68.764 131.669">
  <defs>
    <style>
      .cls-1, .cls-4 {
        fill: none;
        stroke-width: 2px;
      }

      .cls-1, .cls-2, .cls-3, .cls-4, .cls-6 {
        stroke: #828c96;
      }

      .cls-1, .cls-3, .cls-4, .cls-6 {
        stroke-miterlimit: 10;
      }

      .cls-2, .cls-3, .cls-6 {
        fill: #828c96;
      }

      .cls-4 {
        stroke-linecap: round;
      }

      .cls-5 {
        fill: #fff;
      }

      .cls-6 {
        stroke-linejoin: round;
      }
    </style>
  </defs>
  <g id="组_5381" data-name="组 5381" transform="translate(0.999 1.133)">
    <path id="路径_5182" data-name="路径 5182" class="cls-1" d="M-1052.923,1371.739a.335.335,0,0,1-.064-.019h0" transform="translate(1083.372 -1268.753)"/>
    <path id="路径_5183" data-name="路径 5183" class="cls-1" d="M-1072.106,1309.96c-.047.03-.1.061-.144.094" transform="translate(1097.304 -1224.079)"/>
    <path id="路径_5185" data-name="路径 5185" class="cls-1" d="M-1060.067,1373.5c4.767,2.982,6.562,9.694,6.338,12.38-.113,1.353-.086,2.141.216,2.518a4.844,4.844,0,0,1,1.69,2.919,2.252,2.252,0,0,1-2.476,2.542c-1.339,0-2.1,1.425-3.173,3.173s-3.118,1.737-3.467,1.38c-.4.551-.866.1-1.013-.213-.716.058-.91-.863-.91-.863l-.542-.346c-.545-.343-.224-1.192-.224-1.192a.587.587,0,0,1-.313-.03" transform="translate(1091.293 -1270.04)"/>
    <path id="路径_5186" data-name="路径 5186" class="cls-1" d="M-1108.9,1339.04c-2.125,3.187-3.076,6.3-2.531,8.366a19.584,19.584,0,0,0,3.43,6.321" transform="translate(1125.757 -1245.114)"/>
    <path id="路径_5187" data-name="路径 5187" class="cls-1" d="M-1040.012,1325.582h.006a20.012,20.012,0,0,0,16.358-7.121c5.32-5.323,5.237-11.688,4.614-16.541l-.152.067a60.2,60.2,0,0,1-19.058,2.855c-5.97-.235-11.97-2.258-15.755-3.751" transform="translate(1084.103 -1217.663)"/>
    <path id="路径_5188" data-name="路径 5188" class="cls-1" d="M-1072.25,1298.386c0-.025,0-.05,0-.075a19.95,19.95,0,0,1,.816-4.482" transform="translate(1097.304 -1212.411)"/>
    <path id="路径_5189" data-name="路径 5189" class="cls-1" d="M-1093.69,1253.52c2.139,1.884,4.581,2.949,6.844,2.515" transform="translate(1112.813 -1183.253)"/>
    <path id="路径_5190" data-name="路径 5190" class="cls-1" d="M-1118,1194.468a14.258,14.258,0,0,1-.858-4.432c-1.721-2.374-2.1-6.435.166-7.121s6.714-1.361,5.771,3.7c-.252,1.215-.678,1.076-.185,1.787.34.487.318.022,2.374,1.749" transform="translate(1132.042 -1131.839)"/>
    <path id="路径_5191" data-name="路径 5191" class="cls-1" d="M-1029.5,1165.4c-.075-.017-.152-.031-.227-.042" transform="translate(1066.548 -1119.482)"/>
    <path id="路径_5192" data-name="路径 5192" class="cls-1" d="M-1015.887,1224.22s0,0,0,0" transform="translate(1056.537 -1162.059)"/>
    <path id="路径_5193" data-name="路径 5193" class="cls-1" d="M-982.65,1157.52v-.542c10.131,4.984,13.716,25.1,14.8,35.5" transform="translate(1032.492 -1113.794)"/>
    <path id="路径_5194" data-name="路径 5194" class="cls-1" d="M-1055.441,1188.64c-.152.528-.307,1.051-.459,1.571" transform="translate(1085.478 -1136.322)"/>
    <path id="路径_5195" data-name="路径 5195" class="cls-1" d="M-1068.647,1244.521c-.089.739-.155,1.483-.2,2.238-.061,1.04-.1,1.956-.11,2.766a12.026,12.026,0,0,0,.437,3.995" transform="translate(1094.924 -1176.744)"/>
    <path id="路径_5196" data-name="路径 5196" class="cls-1" d="M-1030.161,1165.51c-.163.075-.321.149-.478.227" transform="translate(1067.206 -1119.591)"/>
    <path id="路径_5197" data-name="路径 5197" class="cls-1" d="M-1067.6,1282.755c-1.413-.559-2.52-1.043-3.2-1.331a3.618,3.618,0,0,1-1.032-.678,2.723,2.723,0,0,1-.8-3.01,3.014,3.014,0,0,1,1.331-1.633,2.363,2.363,0,0,1,2.172-.172,58.048,58.048,0,0,0,18.132,4.321c6.36.448,13.152-1.35,16.9-2.241a2.375,2.375,0,0,1,1.026-.006,2.61,2.61,0,0,1,2.08,2.277,2.833,2.833,0,0,1-1.649,3.3.2.2,0,0,1-.006-.039" transform="translate(1097.701 -1199.327)"/>
    <path id="路径_5198" data-name="路径 5198" class="cls-1" d="M-1097.532,1323.461a10.719,10.719,0,0,1,5.03,3.148.485.485,0,0,1,.036.039,13.062,13.062,0,0,1,2.18,3.176c2.324,6.54.562,9.378.562,9.378-1.021,3.229,1.27,2.448,2.092,4.98s-2.277,3.525-4.269,3.215c-1.369-.213-2.484.639-3.7,1.953-.553.6-1.126,1.3-1.754,2.039-2,2.352-5.038,1.87-5.475,1.262-.72.728-1.312-.053-1.458-.551-1.082-.077-1.156-1.494-1.156-1.494l-.728-.636c-.73-.639-.061-1.826-.061-1.826s-.924.094-1.4-1.488,1.261-2.559,3.016-2.064a2.88,2.88,0,0,0,2.9-.9c1.139-1.286-1.386-3.29-2.728-8.607-4.9-17.2-.667-21.792,3.867-24.818,0,0,5.431-3.007,18.931,1.779,5.782,2.05,8.709,18.793,2.788,19.5h-.005a.191.191,0,0,1-.039.005c-4.23.448-9.865-2.791-13.567-4.9l-.1-.058h0" transform="translate(1122.951 -1223.622)"/>
    <g id="组_5206" data-name="组 5206" transform="translate(10.27 0)">
      <g id="组_5201" data-name="组 5201" transform="translate(0)">
        <path id="路径_5199" data-name="路径 5199" class="cls-1" d="M-1107.476,1048.118h0c-.5-.011-.976-.038-1.448-.078-.651-.057-1.28-.146-1.882-.26-9.815-1.847-13.289-10.628-14.593-13.476-1.586-3.464-10.8-23.9,6.466-34.711,14.653-9.174,31.462-1.144,34.331,14.6a24.656,24.656,0,0,1,.4,3.615,6.431,6.431,0,0,1,4.233,6.6c-.29,3.566-3.279,4.96-5.153,5.582a25.624,25.624,0,0,1-4.09,9.223v0" transform="translate(1129.277 -995.72)"/>
      </g>
      <g id="组_5204" data-name="组 5204" transform="translate(8.565 25.881)">
        <path id="路径_5200" data-name="路径 5200" class="cls-2" d="M-964.884,1088.452a1.884,1.884,0,0,1,1.4-.016,2.271,2.271,0,0,1,1.13.947,2.964,2.964,0,0,1,.416,1.362,3.262,3.262,0,0,1-.194,1.355c-.153-.437-.259-.853-.393-1.244a5.193,5.193,0,0,0-.476-1.075,2.734,2.734,0,0,0-.752-.813A3.675,3.675,0,0,0-964.884,1088.452Z" transform="translate(1000.13 -1088.309)"/>
        <path id="路径_5201" data-name="路径 5201" class="cls-2" d="M-962.244,1091.5a4.749,4.749,0,0,1-.236.664c-.087.195-.177.375-.273.551s-.2.344-.319.521a4.25,4.25,0,0,1-.438.553,1.341,1.341,0,0,1-.128-.744,1.753,1.753,0,0,1,.222-.7,1.8,1.8,0,0,1,.474-.556A1.317,1.317,0,0,1-962.244,1091.5Z" transform="translate(999.228 -1090.632)"/>
        <g id="组_5203" data-name="组 5203" transform="translate(0 4.152)">
          <g id="组_5202" data-name="组 5202">
            <path id="路径_5202" data-name="路径 5202" class="cls-3" d="M-1034.666,1108.939s3.927.373,5.939-2.151c.268-.336.519-.353.625-.3.241.115.394.349.025.792a5.981,5.981,0,0,1-5.714,2.212C-1034.573,1109.439-1035.491,1108.953-1034.666,1108.939Z" transform="translate(1051.995 -1106.464)"/>
            <path id="路径_5203" data-name="路径 5203" class="cls-3" d="M-1091.137,1124.993s-2.662,2.911-5.847,2.39c-.424-.07-.621.086-.666.195-.1.247-.057.523.512.6a5.98,5.98,0,0,0,5.721-2.192C-1090.871,1125.426-1090.515,1124.45-1091.137,1124.993Z" transform="translate(1097.693 -1119.852)"/>
            <path id="路径_5204" data-name="路径 5204" class="cls-4" d="M-1046.3,1157.576a6.136,6.136,0,0,1-6.469,1.643" transform="translate(1064.952 -1143.715)"/>
          </g>
          <path id="路径_5205" data-name="路径 5205" class="cls-5" d="M-1061.1,1133.408a2.432,2.432,0,0,1,3.452-1.627c.18-.585-.224-.881-.692-1.037a2.418,2.418,0,0,0-2.922.977A1.446,1.446,0,0,0-1061.1,1133.408Z" transform="translate(1071.284 -1124.057)"/>
        </g>
      </g>
      <g id="组_5205" data-name="组 5205" transform="translate(8.615 9.145)">
        <path id="路径_5207" data-name="路径 5207" class="cls-6" d="M-1087.7,1033.752a10.453,10.453,0,0,1-1.92,1.362,8.844,8.844,0,0,1-2.22.891,5.729,5.729,0,0,1-2.467.055,4.807,4.807,0,0,1-2.269-1.173,3.138,3.138,0,0,1-.76-1.17,2.941,2.941,0,0,1-.135-1.432,3.385,3.385,0,0,1,1.508-2.279,3.3,3.3,0,0,1,2.633-.466,3.182,3.182,0,0,1,1.162.585,3.6,3.6,0,0,1,.8.937l-.091.085a5.7,5.7,0,0,0-1-.531,3.138,3.138,0,0,0-1.009-.209,2.709,2.709,0,0,0-1.772.616,2.952,2.952,0,0,0-1.019,1.5,1.77,1.77,0,0,0,.4,1.675,3.659,3.659,0,0,0,.789.637,4.284,4.284,0,0,0,.962.422,5.006,5.006,0,0,0,2.149.137,10.073,10.073,0,0,0,4.175-1.736Z" transform="translate(1097.51 -1029.439)"/>
      </g>
    </g>
    <g id="组_5207" data-name="组 5207" transform="translate(0 41.866)">
      <path id="路径_5208" data-name="路径 5208" class="cls-4" d="M-1110.661,1153.811a11.216,11.216,0,0,0-1.377-1.05c-2.592-1.765-10.2-5.182-17.473,6.866-4.258,5.065-9.319,5.528-16.2,10.348a21.067,21.067,0,0,1-8.683,3.32c-2.762.545-7.943-2.995-8.384,2.5-.571,7.114,6.063,3.731,9.765,4.059,6.318.559,15.592-1,18.784-4.93,6.71-1.774,11.8-1.843,17.4-8.052" transform="translate(1162.814 -1150.929)"/>
    </g>
  </g>
</svg>
