<svg xmlns="http://www.w3.org/2000/svg" width="228" height="228" viewBox="0 0 228 228">
  <defs>
    <style>
      .cls-1 {
        fill: #f1f2f5;
      }

      .cls-2 {
        fill: #fff;
      }

      .cls-3 {
        fill: #d8dee4;
      }

      .cls-4 {
        fill: #f7f8fa;
      }
    </style>
  </defs>
  <g id="组_5458" data-name="组 5458" transform="translate(-261 -439)">
    <path id="路径_5422" data-name="路径 5422" class="cls-1" d="M2382.33,1444.334a113.642,113.642,0,0,1-34.873,82.061,112.266,112.266,0,0,1-9.6,8.283,114,114,0,1,1,44.477-90.344Z" transform="translate(-1893.33 -891.33)"/>
    <path id="路径_5423" data-name="路径 5423" class="cls-2" d="M2336.7,1503.274H2208.872A10.872,10.872,0,0,1,2198,1492.4v-81.029a10.872,10.872,0,0,1,10.872-10.872h107.646l31.051,27.989V1492.4A10.872,10.872,0,0,1,2336.7,1503.274Z" transform="translate(-1898.803 -900.125)"/>
    <path id="路径_5424" data-name="路径 5424" class="cls-3" d="M2363.529,1429.367h-30.752a.778.778,0,0,1-.777-.778v-27.332a.777.777,0,0,1,1.3-.572l30.751,27.332A.778.778,0,0,1,2363.529,1429.367Z" transform="translate(-1915.543 -900.103)"/>
    <rect id="矩形_2826" data-name="矩形 2826" class="cls-3" width="81.053" height="5.54" rx="2.77" transform="translate(316.398 521.805)"/>
    <rect id="矩形_2827" data-name="矩形 2827" class="cls-3" width="38.431" height="5.54" rx="2.77" transform="translate(316.69 541.631)"/>
    <rect id="矩形_2828" data-name="矩形 2828" class="cls-3" width="38.431" height="5.54" rx="2.77" transform="translate(316.69 562.04)"/>
    <path id="路径_5425" data-name="路径 5425" class="cls-3" d="M2314.986,1459.75a36.736,36.736,0,1,0,36.736,36.736A36.736,36.736,0,0,0,2314.986,1459.75Zm0,64.083a27.347,27.347,0,1,1,27.347-27.347A27.348,27.348,0,0,1,2314.986,1523.833Z" transform="translate(-1908.861 -907.55)"/>
    <circle id="椭圆_5014" data-name="椭圆 5014" class="cls-4" cx="27.347" cy="27.347" r="27.347" transform="translate(378.778 561.589)"/>
    <path id="路径_5426" data-name="路径 5426" class="cls-3" d="M2371.721,1552.127a112.246,112.246,0,0,1-9.6,8.283l-12.438-14.143a7.026,7.026,0,0,1-1.662-5.747l.018-.009,5.808-4.828.026-.026a4.723,4.723,0,0,1,.5-.018,6.282,6.282,0,0,1,4.741,2.143Z" transform="translate(-1917.594 -917.062)"/>
    <rect id="矩形_2829" data-name="矩形 2829" class="cls-3" width="7.552" height="25.611" transform="matrix(0.751, -0.66, 0.66, 0.751, 425.051, 617.32)"/>
  </g>
</svg>
