<svg id="humidity" xmlns="http://www.w3.org/2000/svg" width="19.142" height="24.163" viewBox="0 0 19.142 24.163">
  <defs>
    <style>
      .cls-1 {
        fill: #a4dafc;
      }
    </style>
  </defs>
  <path id="路径_2402" data-name="路径 2402" class="cls-1" d="M192.875,128.483A9.6,9.6,0,0,1,183.3,118.9c0-6.538,6.69-12.589,8.727-14.277a1.31,1.31,0,0,1,1.688,0c2.053,1.7,8.727,7.739,8.727,14.277A9.555,9.555,0,0,1,192.875,128.483Zm0-22.441c-1.7,1.444-7.952,7.131-7.952,12.878a7.952,7.952,0,0,0,15.9,0C200.842,113.157,194.577,107.471,192.875,106.042Z" transform="translate(-183.296 -104.32)"/>
  <path id="路径_2403" data-name="路径 2403" class="cls-1" d="M293.113,599.015a1.331,1.331,0,0,1-.243-.03,6.9,6.9,0,0,1-4.653-5.169.808.808,0,0,1,1.581-.334,5.233,5.233,0,0,0,3.558,3.938.815.815,0,0,1,.532,1.019A.841.841,0,0,1,293.113,599.015Z" transform="translate(-285.085 -578.333)"/>
</svg>
