<svg xmlns="http://www.w3.org/2000/svg" width="72.017" height="124.123" viewBox="0 0 72.017 124.123">
  <defs>
    <style>
      .cls-1, .cls-2 {
        fill: none;
        stroke-width: 2px;
      }

      .cls-1, .cls-2, .cls-3, .cls-4, .cls-5 {
        stroke: #828c96;
      }

      .cls-1, .cls-2, .cls-4 {
        stroke-miterlimit: 10;
      }

      .cls-2 {
        stroke-linecap: round;
      }

      .cls-3 {
        fill: #5f6973;
      }

      .cls-4 {
        fill: #fff;
      }

      .cls-5 {
        fill: #828c96;
        stroke-linejoin: round;
      }
    </style>
  </defs>
  <g id="yw_image" transform="translate(1.013 0.095)">
    <g id="组_5190" data-name="组 5190" transform="translate(0 25.321)">
      <path id="路径_5161" data-name="路径 5161" class="cls-1" d="M-988.358,209.391c-5.981-7.025-12.179,1.2-9.75,5.269a18.2,18.2,0,0,0,1,2.106c.073.136.141.26.2.368a2.479,2.479,0,0,1,.288.895c.019.157.037.314.059.468,1.914,14.988,8.04,20.538,11.961,22.911,1.211.733,2.211,1.164,2.811,1.476q-.457,2.168-.82,3.933c-.546,2.649-.935,4.61-1.178,5.868" transform="translate(998.649 -206.65)"/>
      <path id="路径_5162" data-name="路径 5162" class="cls-1" d="M-769.761,210.173c6.99-6.372,12.2,1.41,9.827,5.259A6.709,6.709,0,0,0-761,218.246c-.358,3.715-.759,17.017-16.553,25.637q.2.633.387,1.307a.071.071,0,0,1,0,.019c.806,2.846,1.516,6.133,1.972,8.4" transform="translate(829.344 -207.493)"/>
      <path id="路径_5163" data-name="路径 5163" class="cls-1" d="M-963.263,221.646s-2.556,1.389-3.163-.656,2.987-3.123,4.05-1.677c.661.9,1.115,2.612-.349,4.788-.082.122-.169.244-.262.368a1.45,1.45,0,0,1-.255.253c-.267.213-.829.956-.1,3.167a20.913,20.913,0,0,0,5.4,8.316,27.661,27.661,0,0,0,3.387,2.685" transform="translate(974.027 -215.839)"/>
      <path id="路径_5164" data-name="路径 5164" class="cls-1" d="M-793.971,221.346s2.556,1.389,3.165-.656-2.987-3.123-4.05-1.677a2.983,2.983,0,0,0-.722,1.893,3.307,3.307,0,0,0,.553,1.628,2.971,2.971,0,0,1,.3.668,13.373,13.373,0,0,1-.494,7.14c-1.761,3.27-6.747,8.34-11.169,10.708a1.467,1.467,0,0,1-1.537-.1,3.332,3.332,0,0,0-.719-.387" transform="translate(853.159 -215.609)"/>
    </g>
    <path id="路径_5165" data-name="路径 5165" class="cls-1" d="M-940.085,430.239a20.377,20.377,0,0,1,.255-3.469" transform="translate(953.805 -349.884)"/>
    <path id="路径_5166" data-name="路径 5166" class="cls-1" d="M-772.233,402.42h-.007" transform="translate(825.278 -331.238)"/>
    <path id="路径_5167" data-name="路径 5167" class="cls-1" d="M-763.446,428.182a31.043,31.043,0,0,0-.464-3.692" transform="translate(818.899 -348.138)"/>
    <path id="路径_5168" data-name="路径 5168" class="cls-1" d="M-903.01,515.067a20.72,20.72,0,0,0,24.37-.077" transform="translate(925.414 -417.437)"/>
    <path id="路径_5169" data-name="路径 5169" class="cls-1" d="M-902.333,404.66a2.689,2.689,0,0,0-3.355-2.138c-3.811,1.168-10.7,3.472-17.287,3.431a59.951,59.951,0,0,1-18.989-3.256,2.791,2.791,0,0,0-3.494,2.093,3.081,3.081,0,0,0,2.134,3.682c2.646.933,11.407,4.2,19.888,3.988a62.323,62.323,0,0,0,19.468-4.207A2.942,2.942,0,0,0-902.333,404.66Z" transform="translate(958.009 -331.239)"/>
    <path id="路径_5170" data-name="路径 5170" class="cls-1" d="M-986.971,474.959a2.588,2.588,0,0,1-2.245,1.544c-1.638.039-2.869,1.336-2.042,2.57s1.594.907,1.594.907-.259,1.2.536,1.551l.795.354s.44,1.2,1.388.973c.256.39.973.9,1.4.086.536.407,3.27.015,4.362-2.535s1.826-4.607,3.618-4.87,4.185-1.938,2.81-3.892-2.871-3.448-2.844-5.409a8.73,8.73,0,0,0-.375-7.446c2.485,1.072,4.445-.591,5.533-1.068s4.817-12.973-4.985-16.97c-2.994-1.191-10.642,1.349-13.73,5.149s-5.963,9.442,1.565,22.645C-987.03,472.754-986.333,473.551-986.971,474.959Z" transform="translate(995.373 -360.364)"/>
    <path id="路径_5171" data-name="路径 5171" class="cls-1" d="M-794.707,474.164a2.588,2.588,0,0,0,2.144,1.681c1.632.141,2.78,1.512,1.878,2.692s-1.648.806-1.648.806.184,1.211-.632,1.514l-.815.3s-.514,1.165-1.446.885c-.28.373-1.027.839-1.4,0-.56.373-3.265-.189-4.2-2.8s-1.536-4.712-3.308-5.086-4.056-2.195-2.562-4.059,3.08-3.263,3.175-5.221c0,0-2.283-3.568.057-6.963-2.547.915-6.252-1.5-7.308-2.041s-1.6-15.585,8.666-16.442c2.62-.286,10.538,2.009,13.383,5.995s5.364,9.795-2.973,22.5C-794.51,471.966-795.256,472.719-794.707,474.164Z" transform="translate(855.193 -359.559)"/>
    <path id="路径_5180" data-name="路径 5180" class="cls-2" d="M-779.807,358.415a21.132,21.132,0,0,0-1.655-4.406" transform="translate(832.34 -294.168)"/>
    <path id="路径_5181" data-name="路径 5181" class="cls-2" d="M-928.958,357.235a26.609,26.609,0,0,1,1.442-4.84" transform="translate(945.283 -292.932)"/>
    <g id="组_5196" data-name="组 5196" transform="translate(10.469 0)">
      <g id="组_5191" data-name="组 5191" transform="translate(1 1.021)">
        <path id="路径_5172" data-name="路径 5172" class="cls-1" d="M-903,153.6s-5.2,14.96-20.7,14.678-18.32-12.994-19.342-16.626-7.585-25.732,10.96-33.662c16.8-6.562,31.618,4.408,32.014,20.24a24.486,24.486,0,0,1-.167,3.594,6.368,6.368,0,0,1,3.129,7.106C-897.935,152.373-901.07,153.279-903,153.6Z" transform="translate(944.997 -116.054)"/>
      </g>
      <g id="组_5194" data-name="组 5194" transform="translate(7.634 29.719)">
        <path id="路径_5173" data-name="路径 5173" class="cls-3" d="M-766.521,232.076a1.867,1.867,0,0,1,1.37.2,2.248,2.248,0,0,1,.961,1.1,2.936,2.936,0,0,1,.2,1.4,3.227,3.227,0,0,1-.4,1.3c-.083-.451-.123-.873-.193-1.276a5.154,5.154,0,0,0-.3-1.125,2.708,2.708,0,0,0-.611-.91A3.656,3.656,0,0,0-766.521,232.076Z" transform="translate(802.291 -232.021)"/>
        <path id="路径_5174" data-name="路径 5174" class="cls-3" d="M-765.115,236.214a4.683,4.683,0,0,1-.332.613c-.114.177-.23.339-.352.5s-.252.306-.392.46a4.215,4.215,0,0,1-.513.474,1.325,1.325,0,0,1-.01-.747,1.734,1.734,0,0,1,.324-.65,1.79,1.79,0,0,1,.549-.471A1.3,1.3,0,0,1-765.115,236.214Z" transform="translate(802.474 -235.186)"/>
        <g id="组_5193" data-name="组 5193" transform="translate(0.001 2.895)">
          <g id="组_5192" data-name="组 5192">
            <path id="路径_5175" data-name="路径 5175" class="cls-4" d="M-846.876,245.129s3.783.967,6.137-1.194c.313-.287.561-.266.657-.2.218.149.331.4-.1.778A5.919,5.919,0,0,1-846.1,245.8C-846.861,245.632-847.685,245.017-846.876,245.129Z" transform="translate(864.66 -243.694)"/>
            <path id="路径_5176" data-name="路径 5176" class="cls-4" d="M-911.772,253.125s-3.049,2.44-6.084,1.441c-.4-.133-.621-.011-.681.088-.137.226-.136.5.409.669a5.919,5.919,0,0,0,5.93-1.268C-911.578,253.589-911.08,252.689-911.772,253.125Z" transform="translate(918.613 -250.732)"/>
            <path id="路径_5177" data-name="路径 5177" class="cls-2" d="M-868.021,295.956a6.074,6.074,0,0,1-6.578.615" transform="translate(885.356 -283.184)"/>
          </g>
        </g>
      </g>
      <g id="组_5195" data-name="组 5195" transform="translate(11.559 9.038)">
        <path id="路径_5179" data-name="路径 5179" class="cls-5" d="M-893.084,152.464a10.351,10.351,0,0,1-2.086,1.038,8.782,8.782,0,0,1-2.308.531,5.678,5.678,0,0,1-2.421-.325,4.76,4.76,0,0,1-2.039-1.495,3.107,3.107,0,0,1-.564-1.261,2.916,2.916,0,0,1,.086-1.421,3.351,3.351,0,0,1,1.824-2,3.268,3.268,0,0,1,2.646-.052,3.145,3.145,0,0,1,1.047.75,3.561,3.561,0,0,1,.637,1.038l-.1.069a5.622,5.622,0,0,0-.894-.672,3.1,3.1,0,0,0-.955-.359,2.681,2.681,0,0,0-1.827.33,2.926,2.926,0,0,0-1.226,1.31,1.754,1.754,0,0,0,.14,1.7,3.624,3.624,0,0,0,.674.744,4.271,4.271,0,0,0,.876.56,4.955,4.955,0,0,0,2.08.463,9.969,9.969,0,0,0,4.349-1.058Z" transform="translate(902.553 -147.228)"/>
      </g>
    </g>
  </g>
</svg>
