<svg xmlns="http://www.w3.org/2000/svg" width="70.922" height="122.985" viewBox="0 0 70.922 122.985">
  <defs>
    <style>
      .cls-1, .cls-3, .cls-5 {
        fill: none;
      }

      .cls-1, .cls-2, .cls-3, .cls-4, .cls-5, .cls-6, .cls-7 {
        stroke: #828c96;
      }

      .cls-1, .cls-2, .cls-4, .cls-5 {
        stroke-miterlimit: 10;
      }

      .cls-1, .cls-2, .cls-3, .cls-5 {
        stroke-width: 2px;
      }

      .cls-2 {
        fill: #fff;
      }

      .cls-2, .cls-3, .cls-5 {
        stroke-linecap: round;
      }

      .cls-3, .cls-6 {
        stroke-linejoin: round;
      }

      .cls-4, .cls-7 {
        fill: #5f6973;
      }

      .cls-6 {
        fill: #828c96;
      }
    </style>
  </defs>
  <g id="zl" transform="translate(-0.008 -3.288)">
    <g id="组_5269" data-name="组 5269" transform="translate(1.019 1.107)">
      <path id="路径_5554" data-name="路径 5554" class="cls-1" d="M22.44,101.51a21.648,21.648,0,0,0,20.031,2.223" transform="translate(0.456 5.807)"/>
      <path id="路径_5555" data-name="路径 5555" class="cls-1" d="M29.27,78.51c1.785.171,3.581.289,5.376.331a48.879,48.879,0,0,0,13-2.042" transform="translate(0.926 4.106)"/>
      <path id="路径_5556" data-name="路径 5556" class="cls-1" d="M19.44,81.83a62.9,62.9,0,0,0,15.392,2.277,54.5,54.5,0,0,0,14.323-2.245" transform="translate(0.249 4.452)"/>
      <g id="组_5261" data-name="组 5261" transform="translate(0 92.193)">
        <path id="路径_5557" data-name="路径 5557" class="cls-1" d="M8.577,87.638H8.556C-2.518,90.075-2.7,104.783,16.9,113.943c.246,3.142,1.379,4.4,2.747,4.853a4.618,4.618,0,0,0,1.582.235c2.672,0,5.173-3.057,6.4-4.682.909-1.208,2-2.287,2.063-3.527a4.657,4.657,0,0,0-.641-2.747,4.966,4.966,0,0,0-5.195-2.33l.053-3.26.032-2.213s-.417-10.8-9.256-12.7a11.466,11.466,0,0,0-1.411-.214" transform="translate(-1.019 -87.36)"/>
        <path id="路径_5296" data-name="路径 5296" class="cls-2" d="M15.783,91.135a18.476,18.476,0,0,1,7.143,8.877" transform="translate(-0.003 -87.1)"/>
        <path id="路径_5558" data-name="路径 5558" class="cls-1" d="M58.651,90.84c.118.021.235.043.363.075,10.454,2.822,9.962,16.054-4.265,21.826" transform="translate(2.681 -87.12)"/>
        <path id="路径_5559" data-name="路径 5559" class="cls-1" d="M35.95,107.913l.588-.182h.011l2.971-.919,1.411-.438.609-2.095.139-.492c0-.011.011-.032.011-.043.086-.524,1.133-6.317,5.237-10.154" transform="translate(1.386 -86.931)"/>
        <line id="直线_127" data-name="直线 127" class="cls-1" y1="0.011" transform="translate(45.812 12.025)"/>
        <path id="路径_5560" data-name="路径 5560" class="cls-1" d="M41.321,103.09c0,.011-.011.032-.011.043" transform="translate(1.755 -86.277)"/>
        <path id="路径_5299" data-name="路径 5299" class="cls-1" d="M25.365,108.818a2.174,2.174,0,0,0-4.346,0,2.079,2.079,0,0,0,.128.717.247.247,0,0,1-.141.32.251.251,0,0,1-.112.015,1.261,1.261,0,0,0-1.176.44,1.34,1.34,0,0,0,.064,1.431.244.244,0,0,1-.1.331.249.249,0,0,1-.13.03,1.238,1.238,0,0,0-1.131.444c-.45.635-.02,1.71.962,2.406a2.268,2.268,0,0,0,.214.136,1.451,1.451,0,0,0-1.8.277,1.6,1.6,0,0,0,.7,2.1" transform="translate(0.126 -86.027)"/>
        <path id="路径_5300" data-name="路径 5300" class="cls-1" d="M50.3,106c2.063,0,4.894.7,5.41,1.79s0,1.789-.655,2.565a1.628,1.628,0,0,1,.492,2.768c.855.985.469,1.324-.107,1.924,1.008,1.479-.586,1.771-1.283,1.957.249,1.55-1.636.994-2.307.758s-.8-.441-1.026-.327c-1.972.962-6.158-2.077-10.375-3.042-2.452-.561-5.895-2.352-5.152-5.326a4,4,0,0,1,3.357-3.11,7.891,7.891,0,0,1,3.262.486C44.29,107.226,50.3,106,50.3,106Z" transform="translate(1.334 -86.08)"/>
      </g>
      <g id="组_5262" data-name="组 5262" transform="translate(0.972 53.276)">
        <path id="路径_5561" data-name="路径 5561" class="cls-3" d="M3.491,80.526a15.894,15.894,0,0,1,3.634-3.645,16.8,16.8,0,0,1,8.669-2.9.039.039,0,0,1,.032-.011c.043,0,.1-.011.15-.011,1.742-.1,3.164.021,4.03,0,.705.118.951-.257.951-.257s1.1-1.411,2.6-3.207a5.36,5.36,0,0,1,4.7-1.785c1.272.021,1.336,1.571,1.336,1.571a2.623,2.623,0,0,1,2.277.15.813.813,0,0,1,.2.128,1.263,1.263,0,0,1,.235,1.774,6.034,6.034,0,0,1,.46.855c.342.705-.342,1.561-.342,1.561a1.316,1.316,0,0,1,.5.994,2.285,2.285,0,0,1-.748,1.8c.4.6.46,1.357-1.026,2.747a.284.284,0,0,0-.064.053,1.167,1.167,0,0,1-.182.139c-1.753,1.219-6.595.449-6.595.449-1.742-.513-2.694,1.486-2.694,1.486s-.075.139-.214.385c-.171.267-.428.673-.759,1.154A16.547,16.547,0,0,1,14.5,89.376a8.379,8.379,0,0,1-1.283.492,9.423,9.423,0,0,1-4.7.278H8.493c-.182-.032-.353-.064-.534-.107-5.43-1.3-6.616-5.408-5.793-10.678l1.721-5.783c1.838-4.735,3.057-19.25,16.386-22.628" transform="translate(-1.929 -50.95)"/>
        <path id="路径_5562" data-name="路径 5562" class="cls-3" d="M48.178,68.236a37,37,0,0,0-1.593,5.312,13.377,13.377,0,0,0,.224,5.024c.032.139.053.267.086.4a23.379,23.379,0,0,1,.77,3.923q.048.417.064.866a1.926,1.926,0,0,0-.086.224,17.3,17.3,0,0,0-1.251,8.22s.171,3.1.16,4.318c-.011.3-.021.492-.053.492a5.377,5.377,0,0,0-2.469,4.382,1.466,1.466,0,0,0,.021.492v.011c.235.855,1.325,1.069,1.325,1.069a2.606,2.606,0,0,0-.224,2.18c.011.032.021.053.032.086a1.28,1.28,0,0,0,1.6.823c.075-.032.15-.064.214-.1a5.885,5.885,0,0,0,.78.577c.641.438,1.582-.107,1.582-.107a1.371,1.371,0,0,0,.919.652,2.3,2.3,0,0,0,1.881-.47c.545.492,1.293.663,2.929-.663s1.6-6.606,1.6-6.606l1.443-3.025c.331-.577.695-1.229,1.09-1.967a6.409,6.409,0,0,0,.342-.77c1.838-4.66,1.443-14.462,1.09-17.39-.46-3.859-1.924-13.9-7.471-19.475-2.779-2.811-6.2-4.65-11.811-5.644" transform="translate(0.788 -50.942)"/>
        <path id="路径_5563" data-name="路径 5563" class="cls-2" d="M13.8,66.5s2.448,3.057,1.208,6.4" transform="translate(-1.111 -49.879)"/>
      </g>
      <g id="组_5268" data-name="组 5268" transform="translate(10.496 3.287)">
        <g id="组_5263" data-name="组 5263" transform="translate(0)">
          <path id="路径_5564" data-name="路径 5564" class="cls-1" d="M56.716,36.549c-1.2,3.4-4.468,3.993-6.46,4.112a25.7,25.7,0,0,1-9.174,9.947,20.416,20.416,0,0,1-13.345,2.754A21.612,21.612,0,0,1,19,50.488c-7.6-4.627-8.61-13.1-9.115-16.01C9.23,30.693,5.514,8.392,25.141,2.309c16.644-5.162,30.961,7,29.7,23.084a25.053,25.053,0,0,1-.555,3.626A6.483,6.483,0,0,1,56.716,36.549Z" transform="translate(-9.179 -1.107)"/>
        </g>
        <g id="组_5266" data-name="组 5266" transform="translate(4.867 31.453)">
          <g id="组_5265" data-name="组 5265">
            <g id="组_5264" data-name="组 5264">
              <path id="路径_5306" data-name="路径 5306" class="cls-4" d="M39.63,34.16s-3.732-1.377-6.341.564c-.348.259-.594.21-.687.134-.205-.174-.3-.442.179-.779a6.028,6.028,0,0,1,6.143-.682C39.668,33.645,40.439,34.359,39.63,34.16Z" transform="translate(-14.261 -32.854)"/>
              <path id="路径_5307" data-name="路径 5307" class="cls-4" d="M14.436,35.632s3.346-2.151,6.316-.82c.4.177.628.076.7-.018.162-.214.191-.5-.344-.721a6.028,6.028,0,0,0-6.143.661C14.289,35.142,13.691,36,14.436,35.632Z" transform="translate(-14.092 -32.86)"/>
              <path id="路径_5308" data-name="路径 5308" class="cls-5" d="M24.212,45.975a6.188,6.188,0,0,0,6.73.068" transform="translate(-14.185 -32.975)"/>
            </g>
          </g>
        </g>
        <path id="路径_5309" data-name="路径 5309" class="cls-6" d="M28.9,15.883a9.851,9.851,0,0,1-1.805,1.281A8.32,8.32,0,0,1,25.005,18a5.387,5.387,0,0,1-2.319.051,4.521,4.521,0,0,1-2.133-1.1,2.944,2.944,0,0,1-.715-1.1A2.764,2.764,0,0,1,19.71,14.5a3.183,3.183,0,0,1,1.418-2.143,3.1,3.1,0,0,1,2.477-.438,2.974,2.974,0,0,1,1.09.55,3.4,3.4,0,0,1,.751.881l-.086.079a5.37,5.37,0,0,0-.938-.5,2.968,2.968,0,0,0-.949-.2,2.546,2.546,0,0,0-1.666.579,2.78,2.78,0,0,0-.959,1.41,1.669,1.669,0,0,0,.38,1.575,3.464,3.464,0,0,0,.742.594,4.085,4.085,0,0,0,.9.4,4.708,4.708,0,0,0,2.021.129,9.458,9.458,0,0,0,3.925-1.633Z" transform="translate(-9.276 -1.206)"/>
      </g>
    </g>
    <path id="路径_5310" data-name="路径 5310" class="cls-7" d="M52.882,32.742A1.878,1.878,0,0,1,54.2,33.2a2.26,2.26,0,0,1,.734,1.27,2.938,2.938,0,0,1-.074,1.415,3.254,3.254,0,0,1-.641,1.2c0-.461.048-.885.056-1.3a5.181,5.181,0,0,0-.079-1.167,2.718,2.718,0,0,0-.426-1.017A3.672,3.672,0,0,0,52.882,32.742Z" transform="translate(1.932 2.994)"/>
    <path id="路径_5311" data-name="路径 5311" class="cls-7" d="M54.256,34.02a4.648,4.648,0,0,1-.447.54c-.149.158-.293.29-.443.422s-.3.255-.476.378a4.156,4.156,0,0,1-.6.369,1.328,1.328,0,0,1,.134-.74,1.741,1.741,0,0,1,.445-.576,1.8,1.8,0,0,1,.633-.361A1.311,1.311,0,0,1,54.256,34.02Z" transform="translate(1.937 2.983)"/>
  </g>
</svg>
